<svg xmlns="http://www.w3.org/2000/svg" viewBox="100 100 824 824" width="1024" height="1024">
  <defs>
    <filter id="blur6" x="-10%" y="-10%" width="120%" height="120%"><feGaussianBlur stdDeviation="6"/></filter>
    <filter id="blur14" x="-20%" y="-20%" width="140%" height="140%"><feGaussianBlur stdDeviation="14"/></filter>
    <filter id="blur30" x="-50%" y="-50%" width="200%" height="200%"><feGaussianBlur stdDeviation="30"/></filter>
    <clipPath id="bb0"><path d="M200.9 488.37 A560 560 0 0 1 456.5 396.76 A560 560 0 0 1 567.5 396.76 A560 560 0 0 0 336.51 254.03 A312 312 0 0 0 200.9 488.37Z"/></clipPath>
    <clipPath id="bb1"><path d="M336.51 254.03 A560 560 0 0 1 567.5 396.76 A560 560 0 0 1 636.7 483.54 A560 560 0 0 0 604.27 213.96 A312 312 0 0 0 336.51 254.03Z"/></clipPath>
    <clipPath id="bb2"><path d="M604.27 213.96 A560 560 0 0 1 636.7 483.54 A560 560 0 0 1 612 591.75 A560 560 0 0 0 802.55 398.31 A312 312 0 0 0 604.27 213.96Z"/></clipPath>
    <clipPath id="bb3"><path d="M802.55 398.31 A560 560 0 0 1 612 591.75 A560 560 0 0 1 512 639.91 A560 560 0 0 0 782.04 668.28 A312 312 0 0 0 802.55 398.31Z"/></clipPath>
    <clipPath id="bb4"><path d="M782.04 668.28 A560 560 0 0 1 512 639.91 A560 560 0 0 1 412 591.75 A560 560 0 0 0 558.19 820.56 A312 312 0 0 0 782.04 668.28Z"/></clipPath>
    <clipPath id="bb5"><path d="M558.19 820.56 A560 560 0 0 1 412 591.75 A560 560 0 0 1 387.3 483.54 A560 560 0 0 0 299.55 740.5 A312 312 0 0 0 558.19 820.56Z"/></clipPath>
    <clipPath id="bb6"><path d="M299.55 740.5 A560 560 0 0 1 387.3 483.54 A560 560 0 0 1 456.5 396.76 A560 560 0 0 0 200.9 488.37 A312 312 0 0 0 299.55 740.5Z"/></clipPath>
    <linearGradient id="bg0" gradientUnits="userSpaceOnUse" x1="384.2" y1="442.56" x2="336.51" y2="254.03"><stop offset="0" stop-color="#FFBA84"/><stop offset="1" stop-color="#E46521"/></linearGradient>
    <linearGradient id="bg1" gradientUnits="userSpaceOnUse" x1="486.61" y1="368.79" x2="604.27" y2="213.96"><stop offset="0" stop-color="#FFC594"/><stop offset="1" stop-color="#EC6C24"/></linearGradient>
    <linearGradient id="bg2" gradientUnits="userSpaceOnUse" x1="608.14" y1="402.85" x2="802.55" y2="398.31"><stop offset="0" stop-color="#FFBF8C"/><stop offset="1" stop-color="#E86822"/></linearGradient>
    <linearGradient id="bg3" gradientUnits="userSpaceOnUse" x1="657.27" y1="519.11" x2="782.04" y2="668.28"><stop offset="0" stop-color="#FFAE72"/><stop offset="1" stop-color="#DB5C1C"/></linearGradient>
    <linearGradient id="bg4" gradientUnits="userSpaceOnUse" x1="597.02" y1="630.01" x2="558.19" y2="820.56"><stop offset="0" stop-color="#FF9E5A"/><stop offset="1" stop-color="#CF5117"/></linearGradient>
    <linearGradient id="bg5" gradientUnits="userSpaceOnUse" x1="472.74" y1="652.05" x2="299.55" y2="740.5"><stop offset="0" stop-color="#FF9B56"/><stop offset="1" stop-color="#CD4F16"/></linearGradient>
    <linearGradient id="bg6" gradientUnits="userSpaceOnUse" x1="378.03" y1="568.63" x2="200.9" y2="488.37"><stop offset="0" stop-color="#FFA869"/><stop offset="1" stop-color="#D6581A"/></linearGradient>
    <radialGradient id="bvig" cx="0.5" cy="0.5" r="0.5"><stop offset="0.55" stop-color="#000" stop-opacity="0"/><stop offset="1" stop-color="#000" stop-opacity="0.35"/></radialGradient>
  </defs>
    <path d="M200.9 488.37 A560 560 0 0 1 456.5 396.76 A560 560 0 0 1 567.5 396.76 A560 560 0 0 0 336.51 254.03 A312 312 0 0 0 200.9 488.37Z" fill="url(#bg0)"/>
    <g clip-path="url(#bb0)"><path d="M336.51 254.03 A560 560 0 0 1 567.5 396.76 A560 560 0 0 1 636.7 483.54 A560 560 0 0 0 604.27 213.96 A312 312 0 0 0 336.51 254.03Z" transform="translate(0 7)" fill="#000" opacity="0.45" filter="url(#blur14)"/></g>
    <path d="M336.51 254.03 A560 560 0 0 1 567.5 396.76 A560 560 0 0 1 636.7 483.54 A560 560 0 0 0 604.27 213.96 A312 312 0 0 0 336.51 254.03Z" fill="url(#bg1)"/>
    <g clip-path="url(#bb1)"><path d="M604.27 213.96 A560 560 0 0 1 636.7 483.54 A560 560 0 0 1 612 591.75 A560 560 0 0 0 802.55 398.31 A312 312 0 0 0 604.27 213.96Z" transform="translate(0 7)" fill="#000" opacity="0.45" filter="url(#blur14)"/></g>
    <path d="M604.27 213.96 A560 560 0 0 1 636.7 483.54 A560 560 0 0 1 612 591.75 A560 560 0 0 0 802.55 398.31 A312 312 0 0 0 604.27 213.96Z" fill="url(#bg2)"/>
    <g clip-path="url(#bb2)"><path d="M802.55 398.31 A560 560 0 0 1 612 591.75 A560 560 0 0 1 512 639.91 A560 560 0 0 0 782.04 668.28 A312 312 0 0 0 802.55 398.31Z" transform="translate(0 7)" fill="#000" opacity="0.45" filter="url(#blur14)"/></g>
    <path d="M802.55 398.31 A560 560 0 0 1 612 591.75 A560 560 0 0 1 512 639.91 A560 560 0 0 0 782.04 668.28 A312 312 0 0 0 802.55 398.31Z" fill="url(#bg3)"/>
    <g clip-path="url(#bb3)"><path d="M782.04 668.28 A560 560 0 0 1 512 639.91 A560 560 0 0 1 412 591.75 A560 560 0 0 0 558.19 820.56 A312 312 0 0 0 782.04 668.28Z" transform="translate(0 7)" fill="#000" opacity="0.45" filter="url(#blur14)"/></g>
    <path d="M782.04 668.28 A560 560 0 0 1 512 639.91 A560 560 0 0 1 412 591.75 A560 560 0 0 0 558.19 820.56 A312 312 0 0 0 782.04 668.28Z" fill="url(#bg4)"/>
    <g clip-path="url(#bb4)"><path d="M558.19 820.56 A560 560 0 0 1 412 591.75 A560 560 0 0 1 387.3 483.54 A560 560 0 0 0 299.55 740.5 A312 312 0 0 0 558.19 820.56Z" transform="translate(0 7)" fill="#000" opacity="0.45" filter="url(#blur14)"/></g>
    <path d="M558.19 820.56 A560 560 0 0 1 412 591.75 A560 560 0 0 1 387.3 483.54 A560 560 0 0 0 299.55 740.5 A312 312 0 0 0 558.19 820.56Z" fill="url(#bg5)"/>
    <g clip-path="url(#bb5)"><path d="M299.55 740.5 A560 560 0 0 1 387.3 483.54 A560 560 0 0 1 456.5 396.76 A560 560 0 0 0 200.9 488.37 A312 312 0 0 0 299.55 740.5Z" transform="translate(0 7)" fill="#000" opacity="0.45" filter="url(#blur14)"/></g>
    <path d="M299.55 740.5 A560 560 0 0 1 387.3 483.54 A560 560 0 0 1 456.5 396.76 A560 560 0 0 0 200.9 488.37 A312 312 0 0 0 299.55 740.5Z" fill="url(#bg6)"/>
    <g clip-path="url(#bb6)"><path d="M200.9 488.37 A560 560 0 0 1 456.5 396.76 A560 560 0 0 1 567.5 396.76 A560 560 0 0 0 336.51 254.03 A312 312 0 0 0 200.9 488.37Z" transform="translate(0 7)" fill="#000" opacity="0.45" filter="url(#blur14)"/></g>
    <path d="M200.9 488.37 A560 560 0 0 1 456.5 396.76 A560 560 0 0 1 567.5 396.76" fill="none" stroke="#fff" stroke-opacity="0.59" stroke-width="2.5" stroke-linecap="round" clip-path="url(#bb0)"/>
    <path d="M336.51 254.03 A560 560 0 0 1 567.5 396.76 A560 560 0 0 1 636.7 483.54" fill="none" stroke="#fff" stroke-opacity="0.7" stroke-width="2.5" stroke-linecap="round" clip-path="url(#bb1)"/>
    <path d="M604.27 213.96 A560 560 0 0 1 636.7 483.54 A560 560 0 0 1 612 591.75" fill="none" stroke="#fff" stroke-opacity="0.64" stroke-width="2.5" stroke-linecap="round" clip-path="url(#bb2)"/>
    <path d="M802.55 398.31 A560 560 0 0 1 612 591.75 A560 560 0 0 1 512 639.91" fill="none" stroke="#fff" stroke-opacity="0.46" stroke-width="2.5" stroke-linecap="round" clip-path="url(#bb3)"/>
    <path d="M782.04 668.28 A560 560 0 0 1 512 639.91 A560 560 0 0 1 412 591.75" fill="none" stroke="#fff" stroke-opacity="0.28" stroke-width="2.5" stroke-linecap="round" clip-path="url(#bb4)"/>
    <path d="M558.19 820.56 A560 560 0 0 1 412 591.75 A560 560 0 0 1 387.3 483.54" fill="none" stroke="#fff" stroke-opacity="0.26" stroke-width="2.5" stroke-linecap="round" clip-path="url(#bb5)"/>
    <path d="M299.55 740.5 A560 560 0 0 1 387.3 483.54 A560 560 0 0 1 456.5 396.76" fill="none" stroke="#fff" stroke-opacity="0.39" stroke-width="2.5" stroke-linecap="round" clip-path="url(#bb6)"/>
    <circle cx="512" cy="512" r="312" fill="url(#bvig)"/>
</svg>
